Coordinates
version=1
nRows=6
nColumns=40
inDegrees=yes

Units are S.I. units (second, meters, Newtons, ...)
If the header above contains a line with 'inDegrees', this indicates whether rotational values are in degrees (yes) or radians (no).

endheader
time	pelvis_tilt	pelvis_list	pelvis_rotation	pelvis_tx	pelvis_ty	pelvis_tz	hip_flexion_r	hip_adduction_r	hip_rotation_r	knee_angle_r	knee_angle_r_beta	ankle_angle_r	subtalar_angle_r	mtp_angle_r	hip_flexion_l	hip_adduction_l	hip_rotation_l	knee_angle_l	knee_angle_l_beta	ankle_angle_l	subtalar_angle_l	mtp_angle_l	lumbar_extension	lumbar_bending	lumbar_rotation	arm_flex_r	arm_add_r	arm_rot_r	elbow_flex_r	pro_sup_r	wrist_flex_r	wrist_dev_r	arm_flex_l	arm_add_l	arm_rot_l	elbow_flex_l	pro_sup_l	wrist_flex_l	wrist_dev_l
     10.00000000000000000000	     15.62481035162836384700	      4.07203999488388479477	   -178.98435329144865590933	      0.36270101326291642740	      0.88545782748513635063	     -0.90883169946943487272	     47.62318979124510320844	    -30.85618169739676019958	    -23.46113239509834613727	     33.91393801950460584749	      0.59190988075764028320	    -14.90217337841530920173	      0.00000000000000000000	      0.00000000000000000000	     53.73105848651844240749	    -31.49707112720122736960	     -6.58116723460059649398	     38.37729004762163498299	      0.66981006932384901109	     -7.66237229938521569039	      0.00000000000000000000	      0.00000000000000000000	    -43.77568127210028592344	      7.92031562765170882301	      4.04106070441517228886	     42.61863368063145429687	    -12.52954230399341106761	     14.53688703848455432421	     20.43456052566322256325	     86.48969914672358072494	      0.00000000000000000000	      0.00000000000000000000	     42.45765847032137685346	     -3.33669105537262211669	     19.71989803145395114825	     19.97763026998061874906	     86.57749341100608830857	      0.00000000000000000000	      0.00000000000000000000
     10.00500000000000078160	     15.59934925829804974740	      4.16435286481551525384	   -178.99257568445247557065	      0.36242539321622518900	      0.88633015109505375317	     -0.90902315238276232279	     47.37334659063700570414	    -30.60293729930884154555	    -23.36558188121314216801	     33.60768322067765723205	      0.58656472616807719955	    -14.93880766984758778904	      0.00000000000000000000	      0.00000000000000000000	     53.53861633929500385420	    -31.46902302752762992100	     -6.39213587628706036980	     38.06413242814094388677	      0.66434443778620333454	     -7.71527902429105338911	      0.00000000000000000000	      0.00000000000000000000	    -43.52378673700673061830	      7.98490728815380990113	      4.12268099019412304074	     42.37236197790583247524	    -12.53580352355180060897	     14.40215075336726968658	     20.43800836738984472163	     86.48535915485092573363	      0.00000000000000000000	      0.00000000000000000000	     42.21761620894579181140	     -3.36026322690033607543	     19.74807834702684061767	     20.05282909949118064219	     86.58525199607886690956	      0.00000000000000000000	      0.00000000000000000000
     10.00999999999999978684	     15.53819644942059241544	      4.26982308187062020721	   -179.02463758357663436982	      0.36215782561127907169	      0.88735596711849029639	     -0.90926468429081286349	     47.07153776398231315170	    -30.29585243166708252716	    -23.18095053855314802149	     33.24722700275601994235	      0.58027357835605841707	    -14.94167202235952629508	      0.00000000000000000000	      0.00000000000000000000	     53.30333797386951033559	    -31.46961427842864011950	     -6.19336541010875851754	     37.74706127562147628396	      0.65881050221164560998	     -7.78186776056664974988	      0.00000000000000000000	      0.00000000000000000000	    -43.33253640078078205988	      8.05689005499137778088	      4.26409227130534151939	     42.09743564188756437261	    -12.58374933351687019467	     14.18793832636052165697	     20.51084444229736547527	     86.48511756603369349250	      0.00000000000000000000	      0.00000000000000000000	     42.00143679081517689156	     -3.34316505003560004994	     19.75255627069540409479	     20.20277930645715258606	     86.59179120657587702681	      0.00000000000000000000	      0.00000000000000000000
     10.01500000000000056843	     15.53865472615772347353	      4.34571367803140695685	   -179.02076569897806734843	      0.36188951237365940550	      0.88817751763589514180	     -0.90950706631817601622	     46.87670237856826815914	    -30.11871390755685240492	    -23.21920221450990595713	     33.01675349930565062095	      0.57625105688224298461	    -14.92297781717012838953	      0.00000000000000000000	      0.00000000000000000000	     53.16190445962904220778	    -31.45915600711715143234	     -6.10213017288336700972	     37.48368381767897261625	      0.65421369839501597454	     -7.85611980910450302673	      0.00000000000000000000	      0.00000000000000000000	    -43.05310092124911136580	      8.12793874755752199235	      4.29701402710742019764	     41.82786962983409040362	    -12.58254786395329460902	     14.06218321738186283199	     20.54827885821349298112	     86.49333302987355409641	      0.00000000000000000000	      0.00000000000000000000	     41.78923702972009124323	     -3.35848285822126824129	     19.75225784104632253957	     20.20652982331523261905	     86.59515595542828236830	      0.00000000000000000000	      0.00000000000000000000
     10.01999999999999957367	     15.49586377344923526778	      4.35066499326577815765	   -178.93432091048148890877	      0.36157383389843211763	      0.88892197976808062787	     -0.90948675964429459562	     46.68535620211473258223	    -30.12171917034125812052	    -23.30274464893041752589	     32.90838408053678421084	      0.57435965371625363751	    -14.91495087991824775031	      0.00000000000000000000	      0.00000000000000000000	     53.07850977932294966877	    -31.34939451192074244545	     -5.99029474661450489492	     37.41685689702484296504	      0.65304734860063240465	     -7.93344717566645485363	      0.00000000000000000000	      0.00000000000000000000	    -42.78007139784592993692	      8.20904675597846278379	      4.21292563193942992683	     41.60306760957202243389	    -12.59814695754678304240	     14.02848783466257032160	     20.51322478461324294585	     86.49921995220664427961	      0.00000000000000000000	      0.00000000000000000000	     41.54326148277111485640	     -3.37043004899947096220	     19.76523566878065096830	     20.11534259663956092368	     86.59883512833957297516	      0.00000000000000000000	      0.00000000000000000000
     10.02500000000000035527	     15.38764970580441904247	      4.42473569816939260591	   -179.06493968277970907366	      0.36114766209248327922	      0.89038600080925134339	     -0.91021483859325369448	     46.23468937783049170775	    -29.57934729594044753753	    -22.66838396110570030828	     32.23316652914304825117	      0.56257488427717894375	    -14.81961033965613339092	      0.00000000000000000000	      0.00000000000000000000	     52.54115347562292726025	    -31.39012009423471027958	     -5.87497914778755170317	     36.80413414897610380194	      0.64235331924531424708	     -8.04334280011161517621	      0.00000000000000000000	      0.00000000000000000000	    -42.67845563382142870523	      8.15902088576350870142	      4.51469447989590388914	     41.19080657494914987637	    -12.72961112082449552929	     13.68700088976752660130	     20.82926048048738465468	     86.53160637595038906511	      0.00000000000000000000	      0.00000000000000000000	     41.40310662665918783887	     -3.27240447224495278888	     19.77605405208128530603	     20.22204573228333401858	     86.60023899262597524285	      0.00000000000000000000	      0.00000000000000000000
